<?xml version="1.0" encoding="UTF-8" standalone="no"?>
<!DOCTYPE svg PUBLIC "-//W3C//DTD SVG 1.1//EN" "http://www.w3.org/Graphics/SVG/1.1/DTD/svg11.dtd">
<svg xmlns="http://www.w3.org/2000/svg" version="1.1" viewBox="0 0 1014 383">
  <defs>
    <filter id="shadow">
      <feGaussianBlur stdDeviation="5" />
      <feOffset dy="5" dx="5" />
      <feComposite operator="over" in="SourceGraphic" />
    </filter>
  </defs>
  <g>
    <path fill="#955" d="M 1014,0 C 1003.3439,158.20017 937.50547,192.16034 890.58398,211.37626 843.66249,230.59218 770.42329,240.55225 680.94922,240.54825 591.47515,240.54406 529.99088,230.25936 463.56641,219.89302 397.14194,209.52668 325.82377,196.04735 218.92578,196.04735 136.04492,196.04735 51.737582,204.40879 0,211.53617 L -10,213 V 393 H 1024 V -10 Z" />
    <path d="m 57.458984,127.67383 c -39.111481,0 -74.594208,12.61934 -100.572265,33.375 -25.978057,20.75566 -42.609375,50.01942 -42.609375,82.75 -0.06232,2.88481 2.156337,5.5625 4.609375,5.5625 2.453038,0 4.669742,-2.67769 4.607422,-5.5625 0,-28.41523 14.39733,-54.46622 38.572265,-73.78125 24.174936,-19.31503 57.973168,-31.5 95.392578,-31.5 37.419401,0 73.180536,8.61466 97.355466,27.92969 10.99819,8.7872 20.41909,18.97089 27.43164,30.13476 2.00055,-0.0548 3.99377,-0.12346 5.99805,-0.16992 -7.36199,-13.38506 -17.69758,-25.36394 -30.21289,-35.36328 -25.97806,-20.75566 -61.460786,-33.375 -100.572266,-33.375 z " />
  </g>
  <g filter="url(#shadow)">
    <path d="m -69.395548,282.10246 c -3.958075,-0.0495 -2.935611,16.63469 -3.571308,-5.0625 -0.635697,-21.6972 -1.63967,-54.56957 36.913759,-62.81171 38.553429,-8.24214 148.080987,-20.40704 254.978977,-20.40704 106.89799,0 178.21615,10.47741 244.64062,20.84375 66.42447,10.36634 127.90878,20.59013 217.38285,20.59432 89.47407,0.004 162.71352,-8.50787 209.63501,-27.72379 C 937.50585,188.31957 1003.3439,158.20017 1014,1.4053342e-7 1006.856,164.45718 937.90561,194.6085 896.12231,212.61585 c -41.7833,18.00735 -124.16098,32.63873 -215.26449,32.63898 -91.10351,2.5e-4 -154.41823,-10.49374 -220.71319,-20.83987 -66.29497,-10.34613 -135.68436,-25.59375 -241.21875,-25.59375 -105.53439,0 -215.975585,15.08765 -252.087955,22.94923 -36.11237,7.86159 -29.504659,31.13031 -30.865696,55.26952 -1.361037,24.1392 -1.409702,5.11198 -5.367777,5.0625 z" />
    <path d="M 188.24414 196.41211 C 186.23986 196.45857 184.24664 196.52728 182.24609 196.58203 C 190.64772 209.9573 195.58789 224.74055 195.58789 240.22852 C 195.58789 268.64375 177.02455 298.2963 152.84961 317.61133 C 128.67468 336.92636 94.878385 351.3457 57.458984 351.3457 C 19.503154 351.3457 -11.407691 344.44986 -32.142578 333.11133 C -52.877465 321.7728 -63.648438 304.93565 -63.648438 277.01758 C -63.586119 274.13277 -65.804774 271.45703 -68.257812 271.45703 C -70.71085 271.45703 -72.927554 274.13277 -72.865234 277.01758 C -72.865242 308.45961 -59.038361 330.38364 -36.048828 342.95508 C -13.059296 355.52652 18.883923 362.18945 57.458984 362.18945 C 96.570464 362.18945 132.05319 347.33574 158.03125 326.58008 C 184.00931 305.82442 200.63867 276.52941 200.63867 243.79883 C 200.63867 226.83669 196.16345 210.81045 188.24414 196.41211 z" />
  </g>
</svg>
