<?xml version="1.0" encoding="UTF-8" standalone="no"?>
<!DOCTYPE svg PUBLIC "-//W3C//DTD SVG 1.1//EN" "http://www.w3.org/Graphics/SVG/1.1/DTD/svg11.dtd">
<svg xmlns="http://www.w3.org/2000/svg" version="1.1" viewBox="0 0 349.98276 158.95058">
  <path
     d="m 54.13275,80.150073 c 3.975,-4.995 6.81125,-9.12 8.5025,-12.435 1.68875,-3.315 2.60375,-5.7675 2.73625,-7.36 0.0275,-0.735 -0.065,-1.2425 -0.39625,-1.54125 -0.365,-0.3325 -0.73,-0.44875 -1.19375,-0.44875 -0.54125,-0.009 -1.195,0.44875 -1.99,1.34375 -0.8075,0.855 -1.64,2.25375 -2.535,4.0775 -0.8975,1.79875 -1.7925,4.095 -2.6875,6.815 -0.9175,2.715 -1.70625,5.90125 -2.435,9.54875 l -10e-4,0 z M 50.7515,102.17757 c 1.19387,-1.35 2.81875,-3.039997 4.8725,-5.156247 2.015,-2.13625 4.29375,-4.41625 6.715,-6.89625 2.3925,-2.49375 4.96,-5.0625 7.61375,-7.7425 2.63,-2.695 5.20875,-5.245 7.6625,-7.69125 2.415,-2.48 4.72375,-4.67875 6.81,-6.695 2.0725,-2.02875 3.7625,-3.65625 5.02375,-4.91375 2.03125,-2.02375 3.86375,-3.78625 5.4225,-5.40625 1.51875,-1.65 2.90125,-3.01 4.0275,-4.1675 1.12,-1.1725 2.10625,-2.03625 2.935,-2.63125 0.80125,-0.6075 1.60875,-0.8925 2.3375,-0.8925 0.515,-0.006 0.96125,0.265 1.2925,0.795 0.3025,0.50875 0.4975,1.1925 0.4975,1.98625 -0.0288,0.44875 -0.0662,1.02875 -0.19875,1.69 -0.004,0.2275 -0.1325,0.265 -0.39875,0 -0.30375,-0.30375 -1.02875,-0.39875 -2.2875,-0.39875 -2.28125,-0.03 -4.49375,0.9275 -6.71625,2.78375 -2.2575,1.855 -4.36,4.28875 -6.41625,7.3025 -2.0775,2.995 -3.9775,6.42375 -5.7675,10.2325 -1.80625,3.79625 -3.3475,7.6175 -4.67375,11.42625 -1.32625,3.78 -2.37,7.46875 -3.1325,10.97875 -0.8025,3.488747 -1.145,6.492497 -1.145,8.944997 -0.0337,1.12 0.0825,2.2325 0.2475,3.32625 0.1325,1.06501 0.48,2.08751 0.945,2.98001 0.45,0.8725 1.07875,1.60625 1.84125,2.13625 0.76,0.50375 1.74,0.795 2.93125,0.795 2.1,-0.0413 4.2275,-0.81375 6.31625,-2.44125 2.0875,-1.645 3.8975,-3.69001 5.4225,-6.19126 0.3125,-0.17125 0.49625,0 0.49625,0.39875 -0.48,0.8725 -1.21,1.9225 -2.23875,3.13875 -1.04875,1.20751 -2.27,2.38126 -3.72875,3.49376 -1.485,1.1075 -3.065,2.07625 -4.8225,2.88625 -1.76125,0.79875 -3.565,1.215 -5.42375,1.215 -2.8725,-0.0413 -4.75875,-0.9 -5.75,-2.69875 -1.02,-1.815 -1.48625,-4.19375 -1.48625,-7.18501 -0.0337,-3.55125 1.26,-8.619997 3.77875,-15.316247 2.51875,-6.7125 6.69875,-14.5875 12.53375,-23.67375 0.25125,-0.44 0.2975,-0.6975 0.0975,-0.89625 -0.2025,-0.2325 -0.43,-0.16625 -0.695,0.1 -1.3475,1.17 -2.9,2.68875 -4.725,4.47875 -1.85375,1.77125 -3.77875,3.76125 -5.86875,5.9175 -2.12125,2.1225 -4.22875,4.3775 -6.42,6.66625 -2.2075,2.28375 -4.315,4.525 -6.375,6.7125 -2.07625,2.15375 -3.95125,4.22625 -5.6775,6.1175 -1.725,1.85875 -3.15375,3.531247 -4.28363,4.919997 -0.5625,0.595 -1.0625,1.2475 -1.59375,1.94375 -0.57125,0.67 -0.92775,1.31 -1.19387,1.8375 -0.15138,0.25 -0.19875,0.4625 -0.19875,0.59625 -0.0351,0.1275 -0.13225,0.265 -0.39888,0.39875 -0.626,0.32 -1.33012,0.71625 -2.19087,1.14625 -0.86775,0.41125 -1.55763,0.91125 -2.088,1.44 -0.28363,0.16626 -0.46475,0.25001 -0.59713,0.25001 -0.22512,0 -0.29637,-0.1675 -0.29637,-0.50001 -0.0112,-0.065 0.0337,-0.1475 0.10012,-0.2475 0.0635,-0.1 0.18263,-0.29875 0.34713,-0.59625 0.13037,-0.3075 0.34675,-0.7425 0.54537,-1.3375 0.19,-0.61875 0.43125,-1.4225 0.69738,-2.48 0.499,-2.14625 1.04487,-4.71375 1.54237,-7.788747 0.49275,-3.09125 1.10988,-6.3 1.83988,-9.67375 -2.49125,2.7125 -5.2925,5.40875 -8.50725,8.0875 -3.24863,2.65 -6.5665,5.093747 -10.04888,7.243747 -3.5,2.1225 -6.98237,3.90375 -10.49762,5.26 -3.53213,1.325 -6.76463,2.03376 -9.75,2.03376 -2.80463,0 -5.15963,-0.72751 -7.11713,-2.18126 C 0.959,106.56007 0,104.00257 0,100.29882 c 0,-1.348747 0.26662,-2.678747 0.79787,-4.068747 0.51613,-1.39375 1.19388,-2.76375 1.98875,-4.11875 0.78375,-1.36 1.67388,-2.6275 2.63625,-3.81875 0.94625,-1.215 1.90875,-2.2525 2.83738,-3.18125 0.19725,-0.20375 0.36775,-0.2475 0.5,-0.14875 0.12987,0.06 0.0986,0.315 -0.101,0.64875 -1.97763,1.90125 -3.35888,3.79625 -4.18025,5.67125 -0.855,1.8525 -1.23,3.66375 -1.23,5.37125 -0.0415,1.955 0.38137,3.568747 1.14262,4.784997 0.75638,1.18375 1.72213,2.185 2.88238,2.90875 1.15225,0.72375 2.435,1.2175 3.82612,1.48 1.35888,0.2275 2.71638,0.395 3.97513,0.395 3.354,0 6.75725,-0.69 10.13625,-2.07 3.35,-1.39875 6.5585,-3.11375 9.5385,-5.203747 2.98,-2.12375 5.69637,-4.31125 8.1465,-6.66375 2.44387,-2.37375 4.47362,-4.425 6.065,-6.21625 1.09862,-4.8075 2.46875,-9.235 4.025,-13.37875 1.52,-4.17625 3.7625,-7.9075 6.615,-11.28875 1.7575,-2.13875 3.28375,-3.845 4.47625,-5.1725 1.1675,-1.32875 1.98875,-1.99 2.385,-1.99 0.43625,-0.006 0.8975,0.315 1.295,0.945 0.395,0.60125 0.59625,1.2775 0.59625,1.94125 -0.2325,0.785 -0.695,2.10375 -1.49,3.9275 -0.83375,1.79625 -1.84125,3.87875 -3.135,6.1675 -1.3275,2.2875 -2.785,4.7075 -4.47625,7.26 -1.69125,2.54875 -3.53,4.95625 -5.52,7.21125 -0.765,4.01375 -1.30988,7.72625 -1.74,11.04125 -0.46975,3.31125 -0.84475,6.46625 -1.24275,9.451247" />
  <path
     d="m 106.78525,93.103823 c -0.0113,1.19 0.19875,2.0225 0.5975,2.48625 0.13125,0.19875 0.415,0.33 0.84625,0.39625 0.3975,0.06 0.8125,0.1 1.14625,0.1 0.4225,-0.04 0.97625,-0.0488 1.53875,-0.14875 0.55125,-0.13125 0.97875,-0.14875 1.24375,-0.14875 0.52,-1.48125 0.7975,-2.71625 0.7975,-3.77875 -0.0263,-0.67875 -0.11625,-1.3925 -0.35,-2.1875 -0.2675,-0.83125 -0.81375,-1.19375 -1.74,-1.19375 -1.365,-0.0125 -2.33875,0.48125 -3.035,1.44375 -0.7225,0.925 -1.045,1.97125 -1.045,3.03125 z m -0.009,-2.59 c -0.009,-0.21375 -0.0837,-0.36375 -0.25,-0.49625 -0.175,-0.15 -0.31625,-0.1325 -0.44875,0 -1.285,0.77875 -2.4025,1.82625 -3.43,3.08625 -1.035,1.255 -1.9225,2.60125 -2.685,4.0275 -0.7925,1.4125 -1.34375,2.868757 -1.7425,4.327497 -0.42875,1.41875 -0.59625,2.75125 -0.59625,3.87875 -0.0412,0.75375 0.16625,1.57375 0.4975,2.33625 0.29125,0.73375 0.9625,1.1425 1.89125,1.1425 0.79,-0.0337 1.755,-0.36375 2.8825,-1.09125 1.12125,-0.7325 2.23875,-1.6575 3.3325,-2.785 1.06125,-1.16125 2.10625,-2.37125 3.035,-3.73 0.92375,-1.399997 1.6575,-2.671247 2.1875,-3.931247 -1.01875,0.245 -1.78875,0.44875 -2.38625,0.54875 -0.61875,0.0637 -1.29375,0.1825 -2.0875,0.2475 -0.765,-0.0362 -1.23,-0.2975 -1.49375,-0.895 -0.3,-0.62625 -0.39625,-1.325 -0.39625,-2.1875 -0.0288,-1.135 0.28125,-2.07125 0.84625,-2.83375 0.545,-0.78625 0.84625,-1.31125 0.84625,-1.645 l -0.002,0 z m 20.56875,0.59375 c -2.28625,0.98875 -4.6925,2.0225 -7.31,3.08375 -2.63,1.02625 -5.0875,1.95625 -7.40875,2.6875 -0.59875,1.315 -1.4125,2.77125 -2.44,4.329997 -1.04625,1.5175 -2.18625,3 -3.48,4.3275 -1.32125,1.3025 -2.6875,2.43875 -4.18,3.33375 -1.5,0.885 -2.965,1.34376 -4.42125,1.34376 -1.89375,0 -3.07125,-0.39876 -3.635,-1.19501 -0.595,-0.815 -0.84625,-1.9575 -0.84625,-3.4825 -0.0412,-1.815 0.58,-3.715 1.7425,-5.771247 1.1225,-2.07375 2.62,-3.98125 4.3775,-5.77125 1.71875,-1.80125 3.63125,-3.28375 5.61875,-4.47875 1.9525,-1.2125 3.78,-1.7925 5.3725,-1.7925 1.48625,-0.002 2.485,0.315 2.8825,0.945 0.36,0.6025 0.5975,1.50875 0.5975,2.63875 -0.03,0.56625 -0.11625,1.31 -0.3475,2.13875 -0.27125,0.795 -0.48,1.50875 -0.74625,2.03875 0.82125,-0.20375 1.85625,-0.4625 2.9825,-0.7925 1.0925,-0.36625 2.32125,-0.73 3.5825,-1.195 1.24,-0.475 2.52,-0.94625 3.77875,-1.44375 1.23,-0.52625 2.45375,-0.9775 3.5825,-1.44125 l 0.2975,0.49625" />
  <path
     d="m 133.1865,115.21258 c -2.26,-0.0413 -3.7475,-0.4975 -4.525,-1.49375 -0.7875,-0.99625 -1.16375,-2.09 -1.16375,-3.285 -0.04,-1.16126 0.21125,-2.37501 0.6325,-3.73626 0.42,-1.3975 0.94,-2.80625 1.5525,-4.3325 0.59625,-1.53625 1.335,-3.071247 2.1625,-4.632497 0.795,-1.5675 1.63875,-3.105 2.435,-4.6325 0.1875,-0.46625 0.21375,-0.7125 0.0488,-0.74625 -0.19125,-0.0375 -0.415,0.0825 -0.7475,0.3475 -2.33375,1.69125 -4.76,4.00375 -7.3575,6.82625 -2.63,2.801247 -5.0575,5.958747 -7.38125,9.409997 -0.36125,0.43375 -0.59625,0.69875 -0.79625,0.69875 -0.41125,-0.0162 -0.71,-0.2325 -0.94375,-0.69875 -0.265,-0.49875 -0.3475,-0.89875 -0.3475,-1.2975 -0.001,-0.48 0.16625,-0.9275 0.4975,-1.3925 0.99375,-1.40375 2.00625,-2.88625 3.03375,-4.48 1.01625,-1.6125 1.93875,-3.138747 2.735,-4.632497 0.79,-1.50875 1.44375,-2.8375 1.94125,-4.03375 0.46875,-1.2 0.74625,-2.06 0.74625,-2.59125 -0.0275,-0.4125 -0.3,-0.5975 -0.89875,-0.5975 -0.54875,-0.0237 -1.125,0.23375 -1.78875,0.69875 -0.33625,0.25875 -0.56,0.2325 -0.69375,-0.1 -0.15875,-0.3475 0.065,-0.59875 0.59375,-0.79875 3.55375,-1.3675 5.57875,-1.99 6.03125,-1.99 0.365,-0.002 0.58625,0.265 0.58625,0.79625 -0.0125,0.31375 -0.0975,0.78 -0.2925,1.34375 -0.235,0.55625 -0.52,1.3275 -0.9725,2.29125 -0.45875,0.9425 -1.05875,2.15875 -1.82,3.58625 -0.7875,1.4175 -1.67375,3.1675 -2.73625,5.226247 2.3575,-2.454997 4.72875,-4.758747 7.02125,-6.913747 2.25625,-2.185 4.46875,-3.93 6.525,-5.3225 0.26125,-0.1375 0.465,-0.19875 0.5975,-0.19875 0.0962,-0.0225 0.315,0.1325 0.5475,0.39875 0.22125,0.23375 0.3475,0.4625 0.3475,0.59625 -0.001,0.245 -0.0662,0.4975 -0.19875,0.695 -0.55,0.9275 -1.2275,2.22375 -2.09,3.8825 -0.8925,1.65375 -1.69125,3.415 -2.48625,5.27375 -0.82875,1.844997 -1.49,3.663747 -2.0875,5.421247 -0.6025,1.72875 -0.89625,3.2325 -0.89625,4.4275 -0.04,1.72001 0.415,2.95001 1.24375,3.67751 0.79125,0.7075 2.00625,1.09375 3.53125,1.09375 1.785,-0.0113 3.715,-0.48 5.77,-1.44125 2.0425,-0.99 3.92875,-2.15375 5.61875,-3.58001 1.68,-1.43125 3.1,-2.9525 4.22625,-4.57625 1.12375,-1.645 1.69125,-3.06875 1.69125,-4.33 -0.025,-0.698747 -0.165,-1.161247 -0.49375,-1.492497 -0.16,-0.17 -0.035,-0.19875 0.295,-0.19875 0.53,0.2525 0.9125,0.6475 1.145,1.14625 0.225,0.478747 0.3475,0.946247 0.3475,1.343747 -0.04,1.38375 -0.66375,2.92125 -1.99,4.5825 -1.3275,1.6225 -3,3.205 -5.02375,4.63251 -2.0575,1.38875 -4.2925,2.64 -6.8125,3.635 -2.5325,0.995 -4.97125,1.49375 -7.3575,1.49375" />
  <path
     d="m 128.03275,8.6500718 c 0.985,-1.015 2.1725,-2.005 3.53375,-3.03125 1.3375,-1.0375 2.9175,-1.955 4.67625,-2.785 1.71875,-0.86875 3.7125,-1.50875 5.8675,-2.03875002 2.11875,-0.55625 4.525,-0.794999997773 7.11125,-0.794999997773 C 154.694,-0.01112822 159.66525,1.2425718 164.0415,3.7263218 c 4.36375,2.48 8.10625,5.96 11.19,10.4300012 3.04875,4.44875 5.3975,9.81875 6.94125,16.045 1.53,6.18875 2.31875,13.08 2.31875,20.565 -0.0375,9.32125 -0.96,17.73375 -2.87875,25.18375 -1.955,7.41375 -4.23875,13.775 -6.9625,18.975 -2.73125,5.169997 -5.55,9.171247 -8.47875,11.919997 -2.94125,2.74625 -5.4,4.12126 -7.42,4.12126 -1.875,0 -2.75,-1.09251 -2.75,-3.27751 -0.0412,-1.48875 0.18375,-2.88125 0.55125,-4.27375 0.35,-1.41625 0.85,-2.7 1.44875,-3.923747 0.5575,-1.23375 1.2475,-2.33375 1.9475,-3.32625 0.67625,-1.0175 1.38375,-1.82125 2.05125,-2.4825 1.225,-1.29125 2.63125,-2.27125 4.0975,-3.03375 1.43625,-0.78125 2.96625,-1.37375 4.4975,-1.83625 l 0.10125,0.39625 c -1.375,0.49125 -2.65125,1.26375 -3.9,2.195 -1.26125,0.91125 -2.345,2.03 -3.2925,3.2925 -1.08125,1.36125 -2.06,3.21 -2.9375,5.439997 -0.8975,2.2125 -1.315,4.2725 -1.315,6.135 -0.0412,0.845 0.18625,1.445 0.55875,1.74375 0.355,0.2825 0.83125,0.44875 1.3725,0.44875 1.61,0 3.6275,-1.225 6.0025,-3.6775 2.35625,-2.4775 4.68125,-6.197497 6.92,-11.234997 2.205,-5.0675 4.155,-11.4 5.7475,-19.0875 1.56,-7.6875 2.39125,-16.8 2.39125,-27.3375 -0.0387,-8.16625 -0.84625,-15.11375 -2.5375,-20.88125 -1.71625,-5.7775 -4.0275,-10.48875 -7.01125,-14.1675 -3.005,-3.7162512 -6.51375,-6.3787512 -10.59125,-8.1012512 -4.11125,-1.7275 -8.505,-2.58625 -13.27875,-2.58625 -3.605,-0.0163 -7.18,0.64625 -10.7925,1.94 -3.6225,1.255 -6.8125,3.1325 -9.5975,5.52 -0.21625,0.195 -0.34625,0.28125 -0.4475,0.2475 -0.13625,-0.035 -0.0838,-0.18125 0.0487,-0.4475" />
  <path
     d="m 194.519,91.412573 c -1.46625,1.17125 -3.02,2.5225 -4.6775,3.98 -1.68625,1.44 -3.3475,2.94875 -5.0725,4.475004 -1.73,1.514993 -3.43125,3.049993 -5.1225,4.576243 -1.69875,1.49125 -3.265,3.0175 -4.7225,4.475 0.71375,1.69751 1.7725,3.01626 3.13125,3.87876 1.34125,0.83625 2.96875,1.295 4.82875,1.295 1.25625,-0.001 2.41875,-0.2825 3.48,-0.84625 1.02375,-0.57375 1.955,-1.325 2.68375,-2.2875 0.71375,-1.00251 1.32625,-2.05626 1.79125,-3.28126 0.43625,-1.25625 0.79625,-2.53625 0.99375,-3.93 0.23875,-2.13125 0.565,-4.341247 0.89625,-6.662497 0.2975,-2.36125 0.92875,-4.2125 1.79125,-5.67375 l -0.001,0.001 z m 12.365,-6.565 c 0.0625,0.26375 -0.10125,0.68125 -0.4975,1.24375 -0.4,0.56375 -0.66,1.1775 -0.7925,1.84125 0.0337,0.23375 0.0312,0.39875 -0.10125,0.39875 -0.17125,-0.0388 -0.2325,-0.0337 -0.29875,-0.1 -0.0887,-0.0725 -0.16625,-0.13375 -0.29875,-0.20125 -0.3375,-0.61875 -0.7125,-1.09375 -1.1425,-1.4925 -0.43125,-0.4225 -1.21,-0.56375 -2.3375,-0.49625 -2.13375,0.1075 -3.4475,1.49125 -3.97875,4.07625 -0.4175,1.71375 -0.6475,3.44875 -0.74625,5.17375 -0.12,1.69875 -0.3475,3.745 -0.74625,6.064997 -0.685,3.975 -2.18875,7.21375 -4.57625,9.69876 -2.425,2.45625 -5.53625,3.73 -9.44875,3.73 -1.8025,-0.025 -3.4975,-0.38125 -5.1225,-1.145 -1.64,-0.77875 -2.80125,-1.80625 -3.53125,-3.13125 -1.19625,1.11125 -2.5175,2.52 -3.97625,4.17625 -1.47125,1.625 -2.835,3.4975 -4.1275,5.52 -1.30375,1.98375 -2.37125,4.22875 -3.23375,6.615 -0.88,2.3525 -1.295,4.875 -1.295,7.4625 -10e-4,1.03625 0.21625,2.05375 0.64625,2.98 0.4225,0.91125 1.07875,1.89 1.94375,2.885 0.10125,0.1125 0.16625,0.315 0.1,0.54875 -0.0888,0.19625 -0.29875,0.1825 -0.6975,-0.15 -0.70375,-0.89 -1.28125,-1.525 -1.85125,-1.98875 -0.57625,-0.495 -1.2275,-0.8625 -1.97125,-1.195 -0.6275,-0.14125 -0.9175,-0.7625 -0.9175,-1.88875 -0.003,-2.6575 0.475,-5.19 1.42625,-7.61 0.93125,-2.42875 2.15375,-4.7075 3.61375,-6.86375 1.445,-2.1675 3.085,-4.16125 4.875,-6.0175 1.775,-1.8625 3.5125,-3.58 5.17,-5.17376 -0.23,-0.36375 -0.36625,-0.745 -0.4975,-1.2425 -0.1625,-0.5325 -0.1975,-0.91125 -0.1975,-1.2425 -0.006,-1.63 0.2325,-3.23375 0.695,-4.92375 0.43375,-1.7125 0.96125,-3.067497 1.4925,-4.127497 0.105,-0.15375 0.26625,-0.1825 0.39875,-0.15 0.0975,0.02 0.0987,0.2475 -0.10125,0.64625 -0.3325,0.51125 -0.5625,1.343747 -0.695,2.437497 -0.1525,1.0525 -0.19875,2.23625 -0.19875,3.43125 -0.0362,0.38125 0.0662,0.94625 0.19875,1.6425 0.11375,0.67125 0.3325,1.3075 0.5975,1.83625 3.1725,-2.99375 6.54875,-6.065 10.09625,-9.247497 3.54625,-3.19375 6.945,-6.2325 10.195,-9.1525 0.57125,-0.465 1.27375,-1.06 2.0375,-1.78875 0.72625,-0.76125 1.55875,-1.42625 2.38875,-2.09 0.7875,-0.6625 1.65875,-1.2425 2.48625,-1.74 0.7925,-0.50125 1.57625,-0.74625 2.24,-0.74625 0.69625,-0.0725 1.35875,0.0312 1.88875,0.29625 0.4925,0.245 0.82875,0.66375 0.895,1.195" />
  <path
     d="m 228.44525,98.722573 c -0.55125,0.45875 -1.275,1.0875 -2.23625,1.881247 -0.98875,0.7875 -2.03875,1.65 -3.2325,2.57625 -1.2275,0.89625 -2.405,1.835 -3.6325,2.72625 -1.2575,0.86875 -2.37,1.6325 -3.43,2.22625 -1.27125,0.7125 -2.43625,1.255 -3.53125,1.58625 -1.0975,0.32876 -2.10625,0.49626 -3.03375,0.49626 -1.5575,0 -2.71875,-0.41251 -3.58,-1.23626 -0.86875,-0.82875 -1.2925,-1.99375 -1.2925,-3.5075 -0.0337,-0.72875 0.1825,-1.66625 0.5475,-2.82 0.3575,-1.17375 0.8125,-2.22375 1.34375,-3.208747 0.95625,-1.9475 1.98875,-3.48 2.9825,-4.6975 0.9625,-1.22875 2.0725,-2.24 3.2325,-3.065 1.13375,-0.85375 2.43625,-1.51625 3.82875,-2.07375 1.38125,-0.565 2.95125,-1.10375 4.67375,-1.6325 0.23875,-0.16875 0.565,-0.25 0.89875,-0.25 0.36375,-0.002 0.84625,0.3475 1.34375,1.04125 0.4725,0.67625 0.74625,1.2375 0.74625,1.6325 -0.0238,0.3775 -0.21625,0.925 -0.64875,1.58625 -0.44875,0.65625 -0.81375,1.09125 -1.145,1.28875 -0.4075,-1.07875 -0.88,-1.9225 -1.44375,-2.58625 -0.59125,-0.69625 -1.3075,-0.99625 -2.23375,-0.99625 -0.9625,-0.0337 -1.99125,0.515 -3.185,1.5425 -1.20625,1.0225 -2.32,2.3025 -3.38125,3.8225 -1.0725,1.48875 -1.95625,3.18625 -2.685,5.003747 -0.76125,1.785 -1.09125,3.55 -1.09125,5.20125 -0.003,1.04125 0.215,1.8975 0.645,2.525 0.4225,0.605 1.11,0.94125 2.0375,0.94125 0.90875,-0.004 1.84125,-0.165 2.73625,-0.49375 0.88,-0.335 1.97375,-0.85625 3.235,-1.5825 0.65,-0.41875 1.48875,-0.96125 2.4825,-1.6875 0.98875,-0.7675 2.04,-1.5025 3.135,-2.32875 1.08625,-0.84 2.15625,-1.65125 3.18375,-2.47625 1,-0.849997 1.84125,-1.504997 2.4375,-2.033747 0.32375,-0.3425 0.52875,-0.38 0.59625,-0.14875 0.0275,0.2275 -0.0337,0.48 -0.29875,0.74625" />
  <path
     d="m 234.2165,110.46508 c -2.815,1.1275 -5.62,2.23875 -8.50625,3.33375 -2.9125,1.06875 -5.685,2.14125 -8.40375,3.13625 -2.73875,0.9625 -5.25625,1.9725 -7.60875,2.93375 -2.37625,0.9525 -4.3925,1.84125 -6.11875,2.63875 -2.61,1.18125 -5.36875,2.5725 -8.35125,4.13125 -3.0175,1.54375 -5.7525,3.335 -8.30625,5.32625 -2.56875,1.9925 -4.67625,4.19875 -6.3675,6.61875 -1.7075,2.38125 -2.5375,5.125 -2.5375,8.11125 -0.005,1.625 0.29875,3.1375 0.89625,4.43125 0.58625,1.28125 1.39375,2.3725 2.38875,3.23375 0.9775,0.85625 2.13625,1.51 3.43,1.94125 1.25875,0.40125 2.63625,0.64625 4.0275,0.64625 3.115,-0.0362 6.48375,-0.8625 10.0975,-2.5875 3.58,-1.73125 7.3775,-4.44375 11.28875,-8.16 3.90625,-3.75375 7.9075,-8.51125 11.98625,-14.385 4.07875,-5.90625 8.1075,-12.99 12.08625,-21.35125 l -0.001,0.001 z m 53.54875,-60.851257 c -0.005,0.32625 -0.0662,0.48375 -0.19875,0.44875 -0.15375,-0.0662 -0.265,-0.15 -0.39875,-0.3475 -0.74375,-1.52625 -1.82375,-2.57 -3.28125,-3.1325 -1.46,-0.6025 -2.94875,-0.84625 -4.475,-0.84625 -2.0675,-0.006 -3.99625,0.315 -5.82,0.945 -1.8525,0.59875 -3.53125,1.47375 -5.1225,2.53375 -1.6225,1.06 -3.10125,2.27 -4.5275,3.62875 -1.44625,1.3575 -2.79875,2.7325 -4.1225,4.1225 -1.35,1.45625 -2.7875,3.24625 -4.37875,5.3675 -1.61125,2.08 -3.23125,4.39 -4.92375,6.80875 -1.69625,2.4 -3.35,4.92 -4.975,7.50625 -1.63875,2.565 -3.15,5.05375 -4.57625,7.40625 -1.45375,2.32125 -2.70125,4.4725 -3.8275,6.36125 -1.13,1.8625 -2.02125,3.395 -2.685,4.52125 1.5,-1.22375 3.05,-2.3675 4.57625,-3.5275 1.5175,-1.18375 2.91875,-2.1375 4.1775,-2.93375 0.3725,-0.335 0.86125,-0.49625 1.39125,-0.49625 0.5,-0.005 0.86375,0.19875 0.99625,0.59625 0.1025,0.35875 0.19875,0.7925 0.19875,1.19125 -0.0138,0.91 -0.315,2.2525 -0.945,3.97625 -0.66125,1.7125 -1.36,3.52875 -2.19,5.4175 -0.8375,1.863747 -1.65625,3.677497 -2.48375,5.367497 -0.84375,1.6675 -1.44125,2.93125 -1.84,3.72875 1.43125,-0.67875 3.0325,-1.42625 4.7225,-2.2875 1.67375,-0.86375 3.39875,-1.80625 5.1225,-2.83375 1.7075,-1.0425 3.3825,-2.12 4.9725,-3.278743 1.5825,-1.166254 3.05125,-2.368754 4.37875,-3.627504 0.18875,-0.205 0.36375,-0.20125 0.49625,-0.002 0.125,0.195 0.0663,0.43125 -0.19875,0.6975 -2.28,2.09125 -5.19,4.289997 -8.8025,6.509997 -3.62,2.18875 -7.34375,4.1925 -11.19125,5.91625 -1.815,3.37501 -3.82625,6.95626 -6.115,10.73251 -2.3175,3.73625 -4.775,7.48625 -7.46125,11.13125 -2.68625,3.645 -5.52,7.15625 -8.50375,10.5375 -2.98375,3.36875 -6.0675,6.33 -9.25,8.8475 -3.18375,2.51375 -6.4325,4.5375 -9.7475,6.0625 -3.315,1.5 -6.63125,2.2875 -9.9475,2.2875 -3.665,-0.0363 -6.39875,-1.00875 -8.25375,-3.0275 -1.87375,-2.045 -2.785,-4.6475 -2.785,-7.89125 -0.005,-3.06625 0.87875,-5.85625 2.63625,-8.435 1.7475,-2.58125 3.9775,-4.9625 6.6625,-7.14625 2.66375,-2.22 5.6525,-4.16875 8.9025,-5.955 3.21875,-1.795 6.36625,-3.33875 9.35125,-4.6625 1.70125,-0.83375 3.87875,-1.67125 6.465,-2.63125 2.575,-0.995 5.32125,-1.98375 8.2075,-3.07625 2.84625,-1.105 5.80125,-2.185 8.7525,-3.2775 2.91125,-1.09375 5.6525,-2.1675 8.105,-3.22626 0.895,-1.80125 1.8075,-3.665 2.63625,-5.62125 0.7925,-1.96875 1.575,-3.76375 2.23875,-5.419997 0.63,-1.69625 1.17625,-3.0825 1.54125,-4.275 0.36,-1.22375 0.5475,-1.92375 0.5475,-2.19 -0.02,-0.47125 -0.19875,-0.695 -0.5975,-0.695 -0.2925,-0.0263 -0.66,0.165 -1.19125,0.49625 -1.60125,0.97 -2.97125,2.00625 -4.13125,3.035 -1.16375,0.99 -2.22,2.17125 -3.18125,3.43125 -0.99,1.24625 -1.875,2.669997 -2.73625,4.228747 -0.89375,1.55 -1.8225,3.2975 -2.885,5.22125 -0.1625,0.22375 -0.415,0.56 -0.84625,0.8925 -0.47,0.32875 -0.87875,0.6475 -1.34125,0.945 -0.47125,0.27125 -0.8925,0.54626 -1.29125,0.74626 -0.435,0.17375 -0.66375,0.29875 -0.79625,0.29875 -0.15375,0 -0.19875,-0.1675 -0.19875,-0.5 -0.0375,-0.19875 0.0337,-0.36376 0.10125,-0.49626 1.9575,-3.7675 4.34125,-8.01375 7.05875,-12.742497 2.71125,-4.73125 5.67,-9.5375 8.85375,-14.4275 3.1825,-4.92 6.5325,-9.635 10.0475,-14.23 3.49875,-4.63 7.0625,-8.67625 10.6425,-12.24625 1.5025,-1.55625 3.165,-3.09 4.9225,-4.70875 1.72,-1.6275 3.5475,-3.09 5.37125,-4.4125 1.7875,-1.36 3.63125,-2.3975 5.42375,-3.225 1.78,-0.83 3.515,-1.24 5.17,-1.24 1.76625,-0.006 3.4325,0.4275 4.92375,1.28125 1.49125,0.8375 2.2725,2.23875 2.34,4.15375 -0.0312,0.23875 0.0337,0.54875 0.1,0.8475 0.0438,0.28125 0.13125,0.58125 0.1975,0.84375" />
  <path
     d="m 267.64775,90.712573 c -0.007,-0.505 -0.1325,-0.8775 -0.39875,-1.2425 -0.30625,-0.36625 -0.66375,-0.5475 -1.195,-0.5475 -0.8125,-0.0275 -1.64,0.34875 -2.535,1.045 -0.9,0.695 -1.79,1.57625 -2.685,2.63625 -0.92375,1.05625 -1.725,2.23875 -2.48875,3.53125 -0.795,1.27625 -1.34125,2.50125 -1.73625,3.62875 1.09,-0.48 2.31875,-0.9775 3.58,-1.54125 1.23875,-0.5675 2.35375,-1.21 3.27875,-1.94 1.23,-0.95375 2.2725,-1.80875 3.035,-2.63625 0.7625,-0.84875 1.145,-1.8075 1.145,-2.935 l 0,0.001 z m 9.8475,8.25625 c 0.0925,-0.13375 0.26625,-0.11625 0.39875,0.0488 0.1275,0.1475 0.1325,0.315 0,0.4475 -1.7975,1.724997 -3.6325,3.252497 -5.52375,4.579997 -1.92875,1.30125 -3.7125,2.44 -5.47125,3.33625 -1.765,0.88125 -3.3975,1.59125 -4.92375,2.0875 -1.5575,0.49625 -2.85125,0.74626 -3.97875,0.74626 -2.02875,0.065 -3.58,-0.25126 -4.77375,-0.94751 -1.22625,-0.71375 -1.79125,-1.8075 -1.79125,-3.3325 -0.0188,-0.43 0.0662,-0.93 0.19875,-1.59375 0.13125,-0.665 0.2975,-1.26 0.49625,-1.78875 0.59875,-1.62125 1.495,-3.267497 2.69,-5.027497 1.1725,-1.77875 2.5025,-3.3675 3.9275,-4.82625 1.38625,-1.49625 2.93375,-2.65375 4.525,-3.5825 1.58625,-0.93875 3.085,-1.395 4.47875,-1.395 0.7525,-0.002 1.50625,0.11625 2.135,0.3475 0.6275,0.19625 0.945,0.8125 0.945,1.74 -0.0263,0.96625 -0.48125,2.01125 -1.44375,3.03875 -0.96375,1.025 -2.17125,2.025 -3.62875,2.98625 -1.46,0.92125 -3.05,1.85625 -4.775,2.685 -1.75875,0.81 -3.315,1.576247 -4.77125,2.239997 -0.6925,1.50875 -0.99625,2.9175 -0.99625,4.1775 -0.0288,1.1625 0.53,2.075 1.59,2.63875 1.04375,0.525 2.25625,0.84375 3.58375,0.84375 1.25625,-0.0275 2.6525,-0.2975 4.17625,-0.895 1.50375,-0.61875 3.04875,-1.34375 4.57375,-2.24 1.5225,-0.92 3.00125,-1.90625 4.42625,-3.03375 1.405,-1.14125 2.73625,-2.2225 3.93125,-3.284997" />
  <path
     d="m 293.424,75.672573 c -0.015,0.7025 -0.315,1.45875 -0.945,2.19 -0.66375,0.7225 -1.31,1.09375 -2.03875,1.09375 -0.75125,-0.0375 -1.09625,-0.36625 -1.09625,-1.0975 -0.0312,-0.79875 0.28125,-1.555 0.84375,-2.285 0.54375,-0.76625 1.2775,-1.09625 2.1425,-1.09625 0.70375,-0.004 1.09375,0.39875 1.09375,1.195 z m 2.7825,20.26875 c -2.34875,2.7525 -4.5775,5.108747 -6.765,6.966247 -2.20875,1.83375 -4.21,3.34875 -6.06625,4.47625 -1.89625,1.11125 -3.48,1.92125 -4.8725,2.385 -1.3925,0.44501 -2.48625,0.69501 -3.28375,0.69501 -1.755,0 -2.58625,-0.79501 -2.58625,-2.38626 -0.002,-0.56875 0.16625,-1.27625 0.4975,-2.23625 0.33,-0.96125 0.76375,-1.94 1.295,-2.9375 0.38,-0.88375 0.8925,-1.80625 1.49,-2.8325 0.585,-1.062497 1.19375,-2.037497 1.78875,-3.033747 0.57,-1.02 1.17625,-1.94 1.74,-2.83375 0.54125,-0.93375 1.045,-1.61 1.44375,-2.14125 0.12875,-0.23125 0.315,-0.49625 0.5475,-0.895 0.2125,-0.425 0.4975,-0.8125 0.7975,-1.24375 0.26375,-0.46 0.59875,-0.81125 0.89625,-1.1425 0.2975,-0.355 0.54625,-0.4975 0.74375,-0.4975 0.35625,-0.0238 0.67875,0.2825 0.84625,0.84625 0.13625,0.54875 0.25,1.00875 0.25,1.34 -0.0312,0.26375 -0.1325,0.53125 -0.39875,0.79625 -1.08375,1.31 -2.08875,2.73875 -3.08375,4.23 -1.03125,1.48 -1.8575,2.94875 -2.58625,4.375004 -0.73625,1.413743 -1.32375,2.717493 -1.78875,3.878743 -0.50125,1.15 -0.6975,2.04 -0.6975,2.63625 -0.0125,1.3075 0.59625,1.98625 1.7875,1.98625 0.84,-0.0113 1.97625,-0.315 3.33625,-0.94375 1.3475,-0.66125 2.835,-1.50875 4.42625,-2.63625 1.56375,-1.15375 3.21625,-2.5025 4.8725,-4.1275 1.63,-1.651247 3.24875,-3.398747 4.775,-5.319997 0.0962,-0.07 0.2975,-0.1175 0.49625,-0.15 0.16375,-0.0687 0.2325,0.21625 0.1,0.74375" />
  <path
     d="m 349.9815,91.802573 c -0.035,3.0875 -0.61,5.95125 -1.83,8.506247 -1.22875,2.5225 -2.8025,4.84125 -4.7475,6.86375 -1.9525,1.99375 -4.17,3.79376 -6.67625,5.31876 -2.53875,1.5175 -5.06,2.77 -7.66375,3.7325 -2.625,0.96 -5.12625,1.7 -7.56625,2.215 -2.48,0.4825 -4.61375,0.77375 -6.525,0.77375 -1.41625,-0.04 -2.96625,-0.1075 -4.7475,-0.3225 -1.8125,-0.23 -3.49375,-0.62 -5.1425,-1.21875 -1.675,-0.62625 -3.03375,-1.4625 -4.15375,-2.59125 -1.13625,-1.1675 -1.68,-2.62125 -1.68,-4.47625 -0.04,-1.79251 0.6625,-3.87751 1.99,-6.26376 1.29125,-2.4275 3.05375,-5.206247 5.17625,-8.458747 0.185,-0.34375 0.38,-0.645 0.545,-0.94125 0.1375,-0.33 0.2475,-0.58 0.2475,-0.84625 -0.0262,-0.33125 -0.2325,-0.49625 -0.695,-0.49625 -0.0687,-0.002 -0.4625,0.165 -1.19375,0.49625 -0.7525,0.33 -1.59375,0.81125 -2.5875,1.44125 -1.02875,0.60625 -2.02125,1.4575 -3.0825,2.48625 -1.06875,1.01125 -2.025,2.238747 -2.88875,3.631247 -0.465,0.70875 -0.87625,1.4425 -1.24,2.13875 -0.37,0.67125 -0.64625,1.21 -0.84375,1.54125 -0.15,0.095 -0.515,0.29875 -1.145,0.4975 -0.64,0.16125 -1.0775,0.29875 -1.34375,0.29875 -0.35375,-0.0125 -0.5,-0.19875 -0.5,-0.5975 -0.02,-0.15375 0.315,-0.74625 0.945,-1.84 0.6275,-1.1275 1.42625,-2.42 2.38625,-3.978747 0.95625,-1.6 1.99125,-3.20125 3.08625,-4.92375 1.06,-1.7475 2.14,-3.2825 3.135,-4.67625 0.2275,-0.3375 0.6625,-0.57875 1.19375,-0.74625 0.5125,-0.175 0.995,-0.25 1.39125,-0.25 0.30875,-0.009 0.5,0.19875 0.5,0.5975 -0.025,0.0913 -0.19875,0.48125 -0.5975,1.045 -0.43125,0.55 -0.8625,1.19375 -1.3925,1.89 -0.55625,0.6775 -1.0425,1.37625 -1.54125,2.03875 -0.5125,0.62875 -0.8475,1.15875 -1.045,1.4925 -0.17375,0.1675 -0.0188,0.36375 0.34375,0.49625 2.66875,-1.75125 4.795,-2.91625 6.2875,-3.58 1.4925,-0.66625 2.57125,-0.99625 3.2325,-0.99625 0.82875,-0.002 1.2975,0.3325 1.2975,0.99625 -0.0113,0.19875 -0.0838,0.46625 -0.25,0.79625 -0.1775,0.31375 -0.31625,0.62875 -0.44875,0.895 -0.62375,0.90375 -1.31,2.0225 -2.13875,3.28375 -0.85125,1.225 -1.59125,2.587497 -2.2875,3.979997 -0.7075,1.36375 -1.29375,2.8175 -1.79125,4.275 -0.53625,1.42 -0.74625,2.85 -0.74625,4.17751 -0.04,1.645 0.40875,3 1.22625,4.0275 0.78625,1.005 1.815,1.84 2.99,2.4375 1.14875,0.59625 2.4525,0.99625 3.82625,1.195 1.36125,0.17375 2.64875,0.29875 3.82375,0.29875 3.1,-0.0413 6.57,-0.63 10.2975,-1.89125 3.715,-1.29625 7.19125,-3.05125 10.395,-5.3725 3.185,-2.35626 5.86625,-5.17251 7.99,-8.55501 2.11,-3.401247 3.1875,-7.196247 3.1875,-11.439997 -0.035,-3.485 -0.69625,-5.9325 -2.09,-7.4575 -1.3975,-1.5375 -3.05,-2.48875 -4.975,-2.88625 -0.4775,-0.14 -0.62875,-0.315 -0.49625,-0.5475 0.1175,-0.265 0.36375,-0.28125 0.695,-0.14875 2.74625,0.50625 5.125,1.84125 7.02125,3.93 1.89125,2.085 2.84375,4.65625 2.84375,7.7075" />
  <text
     x="-4.7316718"
     y="111.84396"
     font-size="60px"
     fill="#000000"
     fill-opacity="0"
     font-family="Zapfino Extra LT Pro">Mondschein</text>
</svg>
