<?xml version="1.0" encoding="UTF-8" standalone="no"?>
<!DOCTYPE svg PUBLIC "-//W3C//DTD SVG 1.1//EN" "http://www.w3.org/Graphics/SVG/1.1/DTD/svg11.dtd">
<svg xmlns="http://www.w3.org/2000/svg" version="1.1" viewBox="0 0 1365 1365">
  <path d="M 682.43067,0.00190698 A 682.49857,682.49857 0 0 0 0.001855,682.50102 682.49857,682.49857 0 0 0 575.86995,1356.616 V 879.83087 H 402.53204 V 682.50102 H 575.86995 V 532.1044 c 0,-171.12852 101.92711,-265.5718 257.79515,-265.5718 74.67075,0 152.79675,13.3406 152.79675,13.3406 v 167.96144 h -86.0918 c -84.84444,0 -111.23805,52.69147 -111.23805,106.63104 v 128.03534 h 189.26815 l -30.2336,197.32985 H 789.132 V 1356.618 A 682.49857,682.49857 0 0 0 1364.9981,682.50102 682.49857,682.49857 0 0 0 682.50098,0.00190698 a 682.49857,682.49857 0 0 0 -0.0703,0 z" />
</svg>
