<?xml version="1.0" encoding="UTF-8" standalone="no"?>
<!DOCTYPE svg PUBLIC "-//W3C//DTD SVG 1.1//EN" "http://www.w3.org/Graphics/SVG/1.1/DTD/svg11.dtd">
<svg xmlns="http://www.w3.org/2000/svg" version="1.1" viewBox="0 0 200 200" xmlns:v="https://vecta.io/nano">
  <path d="m 198.6929,38.643342 c -7.2617,3.219404 -15.01426,5.399359 -23.24323,6.381061 a 40.610694,40.610694 0 0 0 17.75725,-22.377026 80.369617,80.369617 0 0 1 -25.69749,9.817019 C 134.73792,-0.01838528 88.540197,33.677085 98.501577,69.422581 64.863857,67.733476 34.979697,51.665327 15.056927,27.122782 c -11.46281,19.489668 -3.99899,43.454742 12.53113,53.993599 -6.64092,-0.207889 -12.87761,-2.035587 -18.33472,-5.067313 -0.006,0.170354 -0.006,0.339264 -0.006,0.508175 0,19.634036 13.96037,35.947607 32.48278,39.701177 -6.30888,1.55917 -12.34346,1.8046 -18.33473,0.69296 5.15394,16.02485 20.06714,27.71865 37.82439,28.15175 -17.90162,13.59946 -38.6906,19.20094 -59.91268,16.74668 91.38489,53.70486 177.572523,-16.60231 177.283783,-97.015242 a 122.69829,122.69829 0 0 0 -0.11405,-5.226118 c 7.91136,-5.71697 14.72553,-12.848744 20.21151,-20.933348" />
</svg>