<?xml version="1.0" encoding="UTF-8" standalone="no"?>
<!DOCTYPE svg PUBLIC "-//W3C//DTD SVG 1.1//EN" "http://www.w3.org/Graphics/SVG/1.1/DTD/svg11.dtd">
<svg xmlns="http://www.w3.org/2000/svg" version="1.1" viewBox="0 0 160 160">
  <path d="m 79.920341,25.40039 c 0,0 -48.698828,0.100391 -60.798828,3.400391 A 19.6,19.6 0 0 0 5.3207312,42.599608 c -3.6599999,21.5 -5.08039056,54.260391 0.099609,74.900392 a 19.6,19.6 0 0 0 13.8007818,13.80078 c 12.1,3.3 60.800781,3.29883 60.800781,3.29883 0,0 48.698837,10e-4 60.798837,-3.29883 A 19.6,19.6 0 0 0 154.62152,117.5 c 3.86,-21.530001 5.05039,-54.270001 -0.0996,-75.000001 A 19.6,19.6 0 0 0 140.72113,28.699218 c -12.1,-3.3 -60.800789,-3.298828 -60.800789,-3.298828 z m -15.5,31.199218 40.400399,23.400391 -40.400399,23.400391 z" />
</svg>
